<?xml version="1.0" standalone="no"?>
<!DOCTYPE svg PUBLIC "-//W3C//DTD SVG 20010904//EN"
 "http://www.w3.org/TR/2001/REC-SVG-20010904/DTD/svg10.dtd">
<svg version="1.0" xmlns="http://www.w3.org/2000/svg"
 width="600.000000pt" height="600.000000pt" viewBox="0 0 600.000000 600.000000"
 preserveAspectRatio="xMidYMid meet">
<metadata>
Created by potrace 1.11, written by Peter Selinger 2001-2013
</metadata>
<g transform="translate(0.000000,600.000000) scale(0.100000,-0.100000)"
fill="#000000" stroke="none">
<path d="M0 3000 l0 -3000 3000 0 3000 0 0 3000 0 3000 -3000 0 -3000 0 0
-3000z m4376 1215 c42 -8 135 -33 206 -55 128 -41 128 -41 122 -68 -17 -69
-44 -77 -141 -43 -29 10 -55 16 -58 13 -14 -14 -1 -30 43 -51 72 -35 138 -88
152 -120 17 -41 -1 -71 -43 -72 -72 -3 -136 4 -208 22 -148 37 -291 35 -456
-7 -273 -68 -478 -251 -538 -480 -19 -75 -19 -229 0 -306 69 -266 317 -510
615 -606 98 -32 172 -42 296 -42 110 0 164 -10 164 -29 0 -12 -42 -21 -140
-32 -67 -7 -64 -7 29 -3 87 4 107 2 122 -12 16 -14 25 -15 67 -5 l48 12 14
193 c14 212 8 348 -17 402 -17 34 -33 45 -33 22 0 -7 7 -35 16 -63 11 -35 17
-101 19 -215 l4 -165 -10 119 c-10 133 -32 277 -48 318 -7 20 -19 28 -43 32
-92 13 -235 26 -297 26 l-71 0 0 39 c0 47 20 71 61 71 45 0 35 24 -22 51 -61
28 -82 55 -77 101 7 70 131 104 349 95 101 -3 149 -10 193 -26 162 -58 254
-161 297 -332 20 -76 21 -101 16 -274 -4 -104 -13 -228 -22 -275 -8 -47 -19
-159 -25 -250 -6 -91 -15 -175 -20 -187 -10 -25 -59 -33 -61 -10 0 9 -2 9 -6
0 -2 -7 -16 -13 -29 -13 -19 0 -24 -5 -24 -23 0 -48 -60 -76 -113 -53 -47 19
-60 47 -54 110 l6 51 -13 -45 -12 -45 -17 32 c-9 18 -17 45 -17 61 l0 30 -62
-27 c-59 -24 -73 -26 -208 -25 -164 1 -249 19 -444 95 -81 31 -110 47 -118 65
-6 13 -25 28 -42 34 -65 21 -221 133 -305 219 -137 138 -230 296 -287 486 -25
83 -28 104 -28 260 0 157 2 177 28 260 15 50 45 123 67 163 40 76 48 98 27 86
-22 -14 35 59 102 130 175 187 447 327 706 365 96 14 256 12 340 -4z m-1200
-588 c-84 -168 -115 -324 -97 -489 29 -254 133 -483 315 -688 22 -26 13 -18
-22 18 -151 156 -269 396 -303 615 -14 90 -6 260 17 347 18 70 60 169 100 237
39 68 35 50 -10 -40z m-1689 -72 c164 -20 261 -39 438 -85 341 -88 565 -196
667 -321 44 -53 138 -190 138 -199 0 -14 -258 -139 -358 -174 -57 -20 -205
-61 -329 -91 -268 -66 -395 -113 -540 -202 -148 -90 -189 -108 -219 -94 -36
16 -30 26 31 51 31 13 54 24 52 27 -3 2 -28 -5 -56 -17 -62 -24 -61 -24 -61
-6 0 23 -17 28 -59 16 -28 -7 -47 -7 -67 1 -34 12 -44 25 -44 60 0 41 37 79
114 116 39 18 62 31 51 27 -11 -3 -36 -8 -55 -11 l-35 -4 40 37 c68 62 149
110 299 173 152 65 162 68 168 49 3 -8 26 -3 74 15 38 14 92 33 119 41 65 19
38 20 -40 1 -65 -15 -81 -18 -73 -10 2 3 74 23 159 44 176 45 176 39 -9 91
-215 61 -574 134 -753 155 -56 6 -57 7 -61 41 -6 48 18 68 82 66 73 -1 64 20
-17 47 -88 29 -131 56 -139 88 -8 30 9 49 62 68 53 19 267 19 421 0z"/>
<path d="M3490 2752 c0 -13 64 -78 120 -123 79 -64 103 -79 45 -29 -27 24 -76
70 -107 101 -32 32 -58 55 -58 51z"/>
<path d="M4716 2577 c-5 -65 -6 -120 -3 -123 8 -9 19 115 15 181 -2 49 -5 39
-12 -58z"/>
<path d="M4936 2618 c-10 -49 -20 -178 -14 -178 7 0 32 200 26 206 -3 3 -8
-10 -12 -28z"/>
<path d="M3330 2636 c0 -2 8 -10 18 -17 15 -13 16 -12 3 4 -13 16 -21 21 -21
13z"/>
<path d="M3450 2505 c47 -47 87 -85 90 -85 2 0 -33 38 -80 85 -47 47 -87 85
-90 85 -2 0 33 -38 80 -85z"/>
<path d="M3554 2412 c8 -13 66 -56 66 -49 0 3 -17 17 -37 33 -20 15 -33 23
-29 16z"/>
<path d="M3660 2336 c0 -3 9 -10 20 -16 11 -6 20 -8 20 -6 0 3 -9 10 -20 16
-11 6 -20 8 -20 6z"/>
<path d="M3710 2306 c0 -3 14 -12 30 -21 17 -9 30 -13 30 -11 0 3 -13 12 -30
21 -16 9 -30 13 -30 11z"/>
<path d="M4666 2124 c-4 -20 -5 -38 -3 -40 3 -3 8 11 11 32 4 20 5 38 3 40 -3
3 -8 -11 -11 -32z"/>
<path d="M4178 2133 c7 -3 16 -2 19 1 4 3 -2 6 -13 5 -11 0 -14 -3 -6 -6z"/>
<path d="M4510 2129 c-25 -4 -83 -9 -130 -10 l-85 -2 95 -8 c110 -9 185 -2
201 17 13 16 -6 17 -81 3z"/>
<path d="M4243 2123 c9 -2 23 -2 30 0 6 3 -1 5 -18 5 -16 0 -22 -2 -12 -5z"/>
<path d="M4882 2050 c0 -19 2 -27 5 -17 2 9 2 25 0 35 -3 9 -5 1 -5 -18z"/>
<path d="M1920 3113 c0 -9 197 -83 220 -83 27 0 -5 17 -106 53 -108 40 -114
41 -114 30z"/>
<path d="M2045 3020 l-20 -9 20 0 c11 0 29 4 40 9 l20 9 -20 0 c-11 0 -29 -4
-40 -9z"/>
<path d="M1998 3003 c7 -3 16 -2 19 1 4 3 -2 6 -13 5 -11 0 -14 -3 -6 -6z"/>
<path d="M2175 3000 c-13 -5 -14 -9 -5 -9 8 0 24 4 35 9 13 5 14 9 5 9 -8 0
-24 -4 -35 -9z"/>
<path d="M1958 2993 c7 -3 16 -2 19 1 4 3 -2 6 -13 5 -11 0 -14 -3 -6 -6z"/>
<path d="M1918 2983 c7 -3 16 -2 19 1 4 3 -2 6 -13 5 -11 0 -14 -3 -6 -6z"/>
<path d="M2085 2975 c-39 -14 -40 -14 -5 -8 41 7 82 22 60 22 -8 0 -33 -7 -55
-14z"/>
<path d="M2018 2953 c7 -3 16 -2 19 1 4 3 -2 6 -13 5 -11 0 -14 -3 -6 -6z"/>
<path d="M2138 2753 c7 -3 16 -2 19 1 4 3 -2 6 -13 5 -11 0 -14 -3 -6 -6z"/>
<path d="M2088 2743 c6 -2 18 -2 25 0 6 3 1 5 -13 5 -14 0 -19 -2 -12 -5z"/>
<path d="M2038 2733 c7 -3 16 -2 19 1 4 3 -2 6 -13 5 -11 0 -14 -3 -6 -6z"/>
<path d="M1988 2723 c7 -3 16 -2 19 1 4 3 -2 6 -13 5 -11 0 -14 -3 -6 -6z"/>
</g>
</svg>
